<svg class="icon icon-plus" width="13" height="12" viewBox="0 0 13 12" fill="none" xmlns="http://www.w3.org/2000/svg">
<path d="M6.72681 0C6.36856 0 6.07816 0.290416 6.07816 0.648649V5.35137H1.37546C1.01722 5.35137 0.726807 5.64177 0.726807 6.00002C0.726807 6.35827 1.01722 6.64867 1.37546 6.64867H6.07816V11.3514C6.07816 11.7096 6.36856 12 6.72681 12C7.08505 12 7.37545 11.7096 7.37545 11.3514V6.64867H12.0782C12.4364 6.64867 12.7268 6.35827 12.7268 6.00002C12.7268 5.64177 12.4364 5.35137 12.0782 5.35137H7.37545V0.648649C7.37545 0.290416 7.08505 0 6.72681 0Z" fill="#112D4E"/>
</svg>

