<svg class="icon icon-search" width="23" height="23" viewBox="0 0 23 23" fill="none" xmlns="http://www.w3.org/2000/svg">
  <path fill-rule="evenodd" clip-rule="evenodd" d="M2.92079 10.1318C2.92079 8.30635 3.64271 6.55568 4.92773 5.2649C6.21276 3.97413 7.95562 3.24898 9.77292 3.24898C11.5902 3.24898 13.3331 3.97413 14.6181 5.2649C15.9031 6.55568 16.6251 8.30635 16.6251 10.1318C16.6251 11.9572 15.9031 13.7079 14.6181 14.9987C13.3331 16.2894 11.5902 17.0146 9.77292 17.0146C7.95562 17.0146 6.21276 16.2894 4.92773 14.9987C3.64271 13.7079 2.92079 11.9572 2.92079 10.1318ZM9.77292 0.49585C8.2529 0.49585 6.75463 0.858674 5.40158 1.55442C4.04854 2.25017 2.87946 3.25892 1.99069 4.49756C1.10191 5.73619 0.518881 7.16924 0.289648 8.67861C0.0604149 10.188 0.191539 11.7305 0.672214 13.1789C1.15289 14.6274 1.96935 15.9404 3.05433 17.0098C4.1393 18.0791 5.46172 18.8742 6.91261 19.3294C8.36349 19.7847 9.90131 19.8871 11.3993 19.6282C12.8974 19.3694 14.3127 18.7566 15.5287 17.8405C15.5677 17.8926 15.6103 17.9418 15.6562 17.9878L19.7675 22.1175C20.0259 22.3683 20.3721 22.507 20.7314 22.5039C21.0907 22.5007 21.4345 22.356 21.6885 22.1007C21.9426 21.8455 22.0868 21.5003 22.0899 21.1393C22.093 20.7784 21.9549 20.4307 21.7052 20.1711L17.594 16.0414C17.5482 15.9953 17.4992 15.9525 17.4473 15.9134C18.5162 14.4817 19.1672 12.7794 19.3272 10.9971C19.4871 9.21487 19.1499 7.42305 18.3532 5.82247C17.5564 4.22188 16.3317 2.87577 14.8163 1.93497C13.3008 0.994169 11.5545 0.49585 9.77292 0.49585Z" fill="#112D4E"></path>
</svg>
