<svg xmlns="http://www.w3.org/2000/svg" width="60" height="60" viewBox="0 0 60 60" fill="none">
  <circle cx="30" cy="30" r="30" transform="rotate(-90 30 30)" fill="white"/>
  <path d="M30 22C29.5223 22 29.1351 22.3872 29.1351 22.8649V29.1352H22.8649C22.3872 29.1352 22 29.5224 22 30C22 30.4777 22.3872 30.8649 22.8649 30.8649H29.1351V37.1351C29.1351 37.6128 29.5223 38 30 38C30.4777 38 30.8649 37.6128 30.8649 37.1351V30.8649H37.1351C37.6128 30.8649 38 30.4777 38 30C38 29.5224 37.6128 29.1352 37.1351 29.1352H30.8649V22.8649C30.8649 22.3872 30.4777 22 30 22Z" fill="#112D4E"/>
</svg>