<svg xmlns="http://www.w3.org/2000/svg" width="17" height="13" viewBox="0 0 17 13" fill="none">
  <path d="M16.433 2.81662H5.53294C5.29961 2.81662 5.09961 2.61662 5.09961 2.38329C5.09961 2.14995 5.29961 1.94995 5.53294 1.94995H16.433C16.6663 1.94995 16.8663 2.14995 16.8663 2.38329C16.8663 2.61662 16.6663 2.81662 16.433 2.81662Z" fill="#112D4E"/>
  <path d="M2.13334 2.81662H0.433336C0.200001 2.81662 0 2.61662 0 2.38329C0 2.14995 0.200001 1.94995 0.433336 1.94995H2.13334C2.36668 1.94995 2.56668 2.14995 2.56668 2.38329C2.56668 2.61662 2.40001 2.81662 2.13334 2.81662Z" fill="#112D4E"/>
  <path d="M16.4328 6.91672H13.5661C13.3328 6.91672 13.1328 6.71672 13.1328 6.48338C13.1328 6.25005 13.3328 6.05005 13.5661 6.05005H16.4328C16.6662 6.05005 16.8662 6.25005 16.8662 6.48338C16.8662 6.71672 16.6662 6.91672 16.4328 6.91672Z" fill="#112D4E"/>
  <path d="M10.1667 6.91672H0.433336C0.200001 6.91672 0 6.71672 0 6.48338C0 6.25005 0.200001 6.05005 0.433336 6.05005H10.1667C10.4001 6.05005 10.6001 6.25005 10.6001 6.48338C10.6001 6.71672 10.4001 6.91672 10.1667 6.91672Z" fill="#112D4E"/>
  <path d="M16.433 11.05H5.53294C5.29961 11.05 5.09961 10.85 5.09961 10.6167C5.09961 10.3834 5.29961 10.1833 5.53294 10.1833H16.433C16.6663 10.1833 16.8663 10.3834 16.8663 10.6167C16.8663 10.85 16.6663 11.05 16.433 11.05Z" fill="#112D4E"/>
  <path d="M2.13334 11.0499H0.433336C0.200001 11.0499 0 10.8499 0 10.6166C0 10.3499 0.200001 10.1499 0.433336 10.1499H2.13334C2.36668 10.1499 2.56668 10.3499 2.56668 10.5832C2.60001 10.8499 2.40001 11.0499 2.13334 11.0499Z" fill="#112D4E"/>
  <path d="M3.83256 4.51669C2.66589 4.51669 1.69922 3.55002 1.69922 2.38334C1.69922 1.21667 2.66589 0.25 3.83256 0.25C4.99924 0.25 5.96591 1.21667 5.96591 2.38334C5.96591 3.55002 5.03257 4.51669 3.83256 4.51669ZM3.83256 1.11667C3.13256 1.11667 2.56589 1.68334 2.56589 2.38334C2.56589 3.08335 3.13256 3.65002 3.83256 3.65002C4.53257 3.65002 5.09924 3.08335 5.09924 2.38334C5.09924 1.68334 4.53257 1.11667 3.83256 1.11667Z" fill="#112D4E"/>
  <path d="M11.8658 8.61679C10.6991 8.61679 9.73242 7.65012 9.73242 6.48344C9.73242 5.31677 10.6991 4.3501 11.8658 4.3501C13.0324 4.3501 13.9991 5.31677 13.9991 6.48344C13.9991 7.65012 13.0658 8.61679 11.8658 8.61679ZM11.8658 5.21677C11.1658 5.21677 10.5991 5.78344 10.5991 6.48344C10.5991 7.18345 11.1658 7.75012 11.8658 7.75012C12.5658 7.75012 13.1324 7.18345 13.1324 6.48344C13.1324 5.78344 12.5658 5.21677 11.8658 5.21677Z" fill="#112D4E"/>
  <path d="M3.83256 12.7501C2.66589 12.7501 1.69922 11.7834 1.69922 10.6167C1.69922 9.41674 2.66589 8.4834 3.83256 8.4834C4.99924 8.4834 5.96591 9.45007 5.96591 10.6167C5.99924 11.7834 5.03257 12.7501 3.83256 12.7501ZM3.83256 9.35007C3.13256 9.35007 2.56589 9.91674 2.56589 10.6167C2.56589 11.3167 3.13256 11.8834 3.83256 11.8834C4.53257 11.8834 5.09924 11.3167 5.09924 10.6167C5.09924 9.91674 4.53257 9.35007 3.83256 9.35007Z" fill="#112D4E"/>
</svg>